<?xml version="1.0" standalone="no"?>
<!DOCTYPE svg PUBLIC "-//W3C//DTD SVG 20010904//EN"
 "http://www.w3.org/TR/2001/REC-SVG-20010904/DTD/svg10.dtd">
<svg version="1.0" xmlns="http://www.w3.org/2000/svg"
 width="859.000000pt" height="859.000000pt" viewBox="0 0 859.000000 859.000000"
 preserveAspectRatio="xMidYMid meet">
<metadata>
Created by potrace 1.11, written by Peter Selinger 2001-2013
</metadata>
<g transform="translate(0.000000,859.000000) scale(0.100000,-0.100000)"
fill="#000000" stroke="none">
<path d="M4680 6926 c-409 -64 -738 -204 -1080 -459 -210 -157 -494 -475 -607
-679 l-26 -47 -36 19 c-35 17 -118 49 -186 71 -81 26 -247 49 -356 49 -257 0
-501 -86 -716 -252 -89 -68 -245 -239 -314 -343 -93 -141 -188 -345 -204 -442
-4 -24 -11 -43 -17 -43 -6 0 -60 -25 -120 -55 -309 -154 -575 -418 -729 -724
-57 -114 -93 -212 -130 -356 l-34 -130 0 -245 c0 -245 0 -245 33 -375 36 -140
65 -223 114 -325 155 -321 424 -595 738 -752 146 -73 214 -99 375 -140 l130
-33 2760 -3 c1766 -2 2801 1 2875 7 364 32 715 211 961 491 159 181 259 376
331 646 21 81 23 110 23 319 l0 230 -34 125 c-35 128 -46 158 -109 290 -146
307 -446 588 -765 715 -96 38 -262 84 -329 92 l-58 6 0 142 c0 240 -41 482
-121 717 -179 527 -573 982 -1079 1246 -200 105 -365 162 -610 213 -141 28
-175 32 -375 35 -149 2 -247 -1 -305 -10z m560 -358 c593 -91 1115 -475 1386
-1018 67 -134 106 -243 144 -395 42 -166 51 -272 49 -545 -3 -263 0 -275 67
-326 32 -25 47 -28 157 -36 359 -25 655 -183 865 -462 76 -101 156 -270 189
-401 24 -96 27 -129 27 -260 0 -122 -4 -168 -23 -245 -82 -338 -294 -607 -594
-754 -112 -54 -157 -69 -286 -96 -100 -20 -116 -20 -2883 -17 l-2783 2 -90 22
c-242 57 -462 181 -631 355 -182 187 -282 369 -342 623 -22 95 -26 132 -26
275 0 144 3 179 27 281 78 330 260 600 533 785 89 61 151 93 297 154 92 39
108 58 132 160 57 237 151 413 313 582 173 181 386 279 612 280 202 1 411 -65
548 -173 63 -49 165 -44 221 11 15 15 49 70 75 121 275 540 823 962 1390 1070
222 42 388 44 626 7z"/>
</g>
</svg>
